REM Generated by IcecastMetadataRecorder
REM 2020-07-29T21:16:11.222Z
TITLE "isics-all"
FILE "isics-all.mp3" WAVE
  TRACK 1 AUDIO
    TITLE "2020-07-29T21:18:24.246Z TO:7 Polk County - Westcom Law Enforcement 4 FROM:1481"
    INDEX 01 02:13:02
  TRACK 2 AUDIO
    TITLE "2020-07-29T21:18:26.326Z TO:24605 Dallas County Law 1 FROM:UNKNOWN"
    INDEX 01 02:15:08
  TRACK 3 AUDIO
    TITLE "2020-07-29T21:18:28.438Z TO:7 Polk County - Westcom Law Enforcement 4 FROM:1377"
    INDEX 01 02:17:16
  TRACK 4 AUDIO
    TITLE "2020-07-29T21:18:35.446Z TO:7 Polk County - Westcom Law Enforcement 4 FROM:1481"
    INDEX 01 02:24:17
  TRACK 5 AUDIO
    TITLE "2020-07-29T21:18:37.526Z TO:59908 Warren County Law 1 FROM:9111050"
    INDEX 01 02:26:22
  TRACK 6 AUDIO
    TITLE "2020-07-29T21:18:41.046Z TO:59908 Warren County Law 1 FROM:9199991"
    INDEX 01 02:29:61
  TRACK 7 AUDIO
    TITLE "2020-07-29T21:18:43.126Z TO:7 Polk County - Westcom Law Enforcement 4 FROM:1377"
    INDEX 01 02:31:67
  TRACK 8 AUDIO
    TITLE "2020-07-29T21:18:49.430Z TO:24605 Dallas County Law 1 FROM:2559984"
    INDEX 01 02:38:15
  TRACK 9 AUDIO
    TITLE "2020-07-29T21:19:01.334Z TO:7 Polk County - Westcom Law Enforcement 4 FROM:1481"
    INDEX 01 02:50:08
  TRACK 10 AUDIO
    TITLE "END"
    INDEX 01 02:52:17